<svg xmlns="http://www.w3.org/2000/svg" width="566" height="647" viewBox="0 0 566 647">
    <g fill="none" fill-rule="evenodd">
        <g transform="matrix(-1 0 0 1 565.806 134.747)">
            <rect width="433.731" height="378.967" fill="#F2F2F2" rx="8.762"/>
            <path fill="#334B62" d="M8.762 0H424.97a8.762 8.762 0 0 1 8.762 8.762v20.81H0V8.763A8.762 8.762 0 0 1 8.762 0z"/>
            <g fill="#F2F2F2" transform="translate(384.078 10.953)">
                <circle cx="4.381" cy="4.381" r="4.381"/>
                <circle cx="18.072" cy="4.381" r="4.381"/>
                <circle cx="31.763" cy="4.381" r="4.381"/>
            </g>
            <g transform="matrix(-1 0 0 1 302.13 86.625)">
                <g transform="translate(.81 49.428)">
                    <rect width="185.4" height="33.3" x=".042" y="15.085" fill="#FFF" rx="4.381"/>
                    <rect width="99" height="6.3" fill="#DDE3E9" rx="3.15"/>
                    <rect width="146.7" height="6.3" x="9.9" y="27.9" fill="#DDE3E9" rx="3.15"/>
                </g>
                <g transform="translate(.81 117.613)">
                    <rect width="185.4" height="33.3" x=".042" y="15.085" fill="#FFF" rx="4.381"/>
                    <rect width="99" height="6.3" fill="#DDE3E9" rx="3.15"/>
                    <rect width="146.7" height="6.3" x="9.9" y="27.9" fill="#DDE3E9" rx="3.15"/>
                </g>
                <rect width="86.4" height="23.4" fill="#DDE3E9" rx="11.7" transform="translate(43.152 204.913)"/>
                <rect width="128.7" height="10.8" x=".858" y=".613" fill="#DDE3E9" rx="3.286"/>
            </g>
        </g>
        <path fill="#D4A181" d="M134.031 299.865c-5.191-4.57-9.106-10.516-9.605-17.724-1.436-20.769 28.041-20.298 35.11-10.707 7.07 9.59 10.103 36.012 3.113 38.886-2.788 1.146-9.203.2-16-2.67l7.82 27.08-23.236 3.265 2.798-38.13z"/>
        <path fill="#282B30" d="M144.611 261.332c-3.132-.068-11.426.749-12.947.962-.971.137-1.993.505-2.693-.3-.574-.658-.573-1.91-.832-2.731-.301-.955-.669-1.887-1.039-2.817-1.052-2.645-2.428-5.11-4.185-7.357-3.296-4.218-7.685-7.268-12.882-8.671-5.74-1.55-11.94-1.217-17.699.07-6.161 1.377-11.516 4.212-17.13 6.96-5.35 2.62-11.122 4.166-17.113 4.096-6.036-.07-10.947-2.622-16.355-4.938-5.537-2.372-11.652-3.572-17.618-2.26-5.57 1.225-10.435 4.262-14.658 7.998-3.95 3.497-7.057 7.472-8.4 12.64-1.445 5.56-.633 11.327 3.61 15.465 6.15 5.999 16.054 6.381 24.066 5.079a44.479 44.479 0 0 0 13.255-4.386c5.566-2.866 10.137-7.04 15.218-10.62 2.385-1.68 4.889-3.136 7.563-4.307 2.595-1.137 5.208-1.859 7.881-.582 2.829 1.35 5.384 2.707 8.496 3.364 2.984.63 6.073.783 9.096.334 5.88-.872 11.428-3.508 16.974-5.531 4.523-1.65 9.372-3.342 14.26-3.054 2.04.12 5.053.536 6.057 2.482-11.753 3.863-14.409 19.33-9.482 29.717 2.658 5.607 14.65 10.913 18.505 7.227 2.442-2.335.432-4.667-.873-6.21-2.5-2.955-3.784-7.02-.32-9.809 2.99-2.405 7.07 1.736 7.134 1.721.887-.196 8.023-5.634 12.47-12.73 5.309-.43 5.624-3.99 3.97-6.631-1.654-2.642-10-5.086-14.329-5.18z"/>
        <path fill="#000" d="M107.596 509.89c23.4 6.508 43.59 9.762 60.567 9.762 16.977 0 32.747-5.011 47.309-15.033-22.9-6.68-41.758-10.02-56.576-10.02-14.817 0-31.917 5.098-51.3 15.291z"/>
        <path fill="#D4A181" d="M188.42 529.032a5.475 5.475 0 0 1-.568-1.102c-3.127-8.224-53.227-96.95-58.218-113.172h56.405c3.795 12.333 20.875 89.732 23.279 105.174 7.584 24.358 23.2 103.245 25.193 108.71 2.097 5.75-9.702 11.739-12.847 4.671-5.003-11.246-16.924-42.364-22.231-61.365-4.976-17.813-9.028-33.838-11.013-42.916z"/>
        <path fill="#D4A181" d="M142.272 539.864c-22.905 5.756-106.686 16.162-112.435 17.794-5.914 1.68-11.1-10.442-3.79-13.068 11.632-4.177 43.684-13.83 63.118-17.77 15.63-3.168 29.894-5.754 39.47-7.268-.811-26.746-4.52-90.931-2.089-104.794h49.908c-2.33 13.293-22.035 110.29-25.697 120-1.162 3.466-4.63 4.998-8.485 5.106z"/>
        <path fill="#E4E4E4" d="M26.334 541.182c-2.917-.539-5.065-.687-6.443-.444-1.724.304-4.188 1.038-7.394 2.202l9.607 54.48c4.882.6 7.239-.659 7.07-3.774a309.384 309.384 0 0 1-.34-7.778l6.683-27.185a1.095 1.095 0 0 0-.825-1.33l-4.08-.913c-1.802-2.594-2.858-4.774-3.17-6.539-.246-1.397-.04-3.407.619-6.032a2.19 2.19 0 0 0-1.727-2.687zM218.008 632.663c-1.037 2.779-1.556 4.868-1.556 6.267 0 1.75.295 4.305.884 7.664h55.322c1.438-4.704.608-7.244-2.49-7.619-3.097-.375-5.67-.714-7.719-1.016l-25.611-11.3a1.095 1.095 0 0 0-1.453.58l-1.608 3.86c-2.867 1.324-5.197 1.986-6.99 1.986-1.418 0-3.362-.552-5.833-1.657a2.19 2.19 0 0 0-2.946 1.235z"/>
        <path fill="#4A4A4A" d="M126.707 414.758c21.993-6.257 42.802-6.257 62.428 0 6.828 30.975 23.419 43.269 26.337 90.759-33.165 16.385-74.133-11.686-108.273 4.293-9.755-22.35 3.901-76.174 19.508-95.052z"/>
        <g>
            <path fill="#D4A181" d="M220.263 380.294l32.936-20.255c5.291-6.954 10.576-12.418 15.856-16.39 1.635-.782 4.537-1.357 2.053 3.613-2.483 4.97-4.87 10.308-3.4 11.721 1.47 1.413 4.835-.847 6.624 1.535 1.194 1.588-4.605 4.503-17.394 8.745l-23.465 23.729-13.21-12.698zM78.992 404.452l20.394 1.126c-14.76 39.787-22.707 60.891-23.844 63.314-2.556 5.45 1.77 14.173 3.57 18.833-6.816 2.621-5.52-8.313-14.125-4.859-7.856 3.153-14.03 9.28-22.596 3.392-1.053-.724-2.112-3.3.877-5.119 7.444-4.528 18.253-12.569 19.802-15.318 2.113-3.75 7.42-24.206 15.922-61.369z"/>
            <path fill="#1877D0" d="M142.396 320.257l8.173-2.605c20.712 15.03 34.095 56.25 47.037 60.136 12.236 3.675 27.807-3.734 46.2-13.367l7.782 12.342c-14.934 21.4-50.17 42.659-66.646 35.665-26.343-11.181-39.277-62.522-42.546-92.171z"/>
            <path fill="#DDE3E9" d="M120.598 430.027l74.095-10.413c3.385-.476 2.064-5.248 1.23-7.632-9.627-27.517-35.966-54.935-41.63-95.235l-21.84-.328c-13.705 30.754-14.927 66.42-11.855 113.608z"/>
            <path fill="#1C91FF" d="M109.18 402.402c-11.298 29.215-21.253 50.504-29.866 63.868l-15.956-.842c1.334-63.1 23.906-112.705 67.715-148.815l.244-.035 8.219-1.155c28.326 62.337 39.706 104.926 34.138 127.766l-66.697 9.373c-1.17-15.975-.138-33.189 2.202-50.16z"/>
        </g>
        <g>
            <path fill="#F5A623" d="M267.571 375.5h-1.428v10.384H264v2.77h2.857v2.076H264v2.4h5.714v-7.246h-1.428V375.5zM270.145 374.927l-1.315.54 4.186 9.56-1.972.811 1.116 2.55 2.63-1.083.837 1.912-2.63 1.082.967 2.208 5.26-2.164-2.92-6.669-1.315.541-4.187-9.559z"/>
            <path stroke="#787878" stroke-width="1.4" d="M267.5 358c-3.038 0-5.5 4.03-5.5 9 0 1.39.192 2.705.536 3.88.885 3.028 2.775 5.12 4.964 5.12 3.038 0 5.5-4.03 5.5-9l-.5-4"/>
        </g>
        <g fill="#C5CFD6">
            <path d="M273.682 329.954l.003.019c-.002-.007-.001-.029-.003-.02"/>
            <path d="M273.684 329.963v.006c.002-.006-.004-.024 0-.006"/>
            <path d="M273.67 329.864c.002.023.007.046.01.069l-.006-.033c.042.304.017.107-.004-.036"/>
            <path d="M273.678 329.934l.005.033c.016.067-.005-.033-.005-.033M273.683 329.962zM273.684 329.963v-.002.002M273.687 329.972c.003.014-.018-.056 0 0M273.684 329.963l-.001-.002.001.002"/>
        </g>
        <g transform="matrix(-1 0 0 1 483.12 .442)">
            <ellipse cx="387.045" cy="167.744" fill="#1C91FF" rx="14.869" ry="14.834"/>
            <ellipse cx="242.463" cy="14.834" fill="#6ABC78" rx="14.869" ry="14.834"/>
            <ellipse cx="203.314" cy="74.686" fill="#787878" rx="11.704" ry="11.698"/>
            <ellipse cx="129.756" cy="112.192" fill="#F5A623" rx="11.437" ry="11.411"/>
            <ellipse cx="88.172" cy="61.978" fill="#6ABC78" rx="8.006" ry="7.988"/>
            <ellipse cx="7.389" cy="79.733" fill="#EC4257" rx="6.862" ry="6.847"/>
            <ellipse cx="325.284" cy="92.43" fill="#F5A623" rx="8.006" ry="7.988"/>
            <ellipse cx="396.195" cy="71.89" fill="#EC4257" rx="10.294" ry="10.27"/>
        </g>
    </g>
</svg>
